<?xml version="1.0" standalone="no"?>
<!DOCTYPE svg PUBLIC "-//W3C//DTD SVG 20010904//EN"
 "http://www.w3.org/TR/2001/REC-SVG-20010904/DTD/svg10.dtd">
<svg version="1.0" xmlns="http://www.w3.org/2000/svg"
 width="912.000000pt" height="912.000000pt" viewBox="0 0 912.000000 912.000000"
 preserveAspectRatio="xMidYMid meet">
<metadata>
Created by potrace 1.14, written by Peter Selinger 2001-2017
</metadata>
<g transform="translate(0.000000,912.000000) scale(0.100000,-0.100000)"
fill="#000000" stroke="none">
<path d="M21 8540 c-3 -3 -7 -1816 -6 -4030 l0 -4025 875 -3 876 -2 -1 2365
c0 2365 0 2365 20 2338 27 -37 54 -84 61 -105 4 -10 9 -18 13 -18 3 0 18 -21
31 -47 14 -27 27 -50 30 -53 3 -3 19 -27 35 -55 16 -27 45 -75 64 -105 20 -30
36 -57 36 -60 0 -3 9 -19 20 -35 11 -17 25 -39 32 -50 6 -11 46 -76 87 -144
42 -68 76 -127 76 -132 0 -5 5 -9 10 -9 6 0 10 -5 10 -11 0 -6 12 -29 27 -52
16 -23 33 -51 40 -62 6 -11 74 -122 150 -247 76 -125 142 -236 148 -247 5 -12
13 -21 17 -21 5 0 8 -5 8 -11 0 -6 20 -42 45 -80 25 -38 45 -71 45 -74 0 -2
33 -57 73 -122 40 -65 94 -152 119 -193 25 -41 69 -112 97 -158 28 -46 51 -85
51 -87 0 -2 13 -24 30 -48 16 -25 30 -50 30 -56 0 -6 5 -11 10 -11 6 0 10 -4
10 -10 0 -5 20 -41 45 -80 25 -39 45 -73 45 -77 0 -3 6 -14 14 -22 8 -9 25
-35 37 -57 22 -38 105 -175 233 -384 86 -142 340 -559 357 -588 9 -15 59 -97
111 -182 l95 -155 421 -1 422 -2 32 57 c17 31 36 59 41 62 5 3 7 8 6 10 -3 4
6 20 48 87 10 15 28 47 42 72 13 24 30 50 37 58 8 7 17 24 20 38 3 13 9 24 13
24 4 0 18 22 32 50 13 27 27 50 30 50 3 0 16 22 29 50 13 27 27 50 32 50 4 0
8 4 8 9 0 6 26 52 57 103 31 51 62 102 68 113 15 29 77 132 97 163 9 15 26 45
38 67 12 22 38 63 56 91 19 28 34 54 34 58 0 4 15 31 33 59 60 92 157 258 157
268 0 5 5 9 10 9 6 0 10 4 10 9 0 9 63 119 80 139 6 6 8 12 5 12 -3 0 -1 6 5
13 9 10 240 394 284 472 20 35 110 185 128 213 10 15 21 34 25 42 3 8 21 39
40 68 18 29 33 57 33 62 0 6 5 10 10 10 6 0 10 5 10 11 0 6 32 62 70 125 39
63 70 116 70 118 0 2 18 33 40 67 63 103 100 168 100 179 0 5 4 10 8 10 5 0
15 12 22 28 8 15 19 34 26 42 6 8 22 35 36 60 13 25 36 64 51 87 15 24 27 45
27 48 0 4 13 25 29 48 15 23 38 60 50 82 22 42 30 55 72 120 14 22 33 54 41
70 8 17 34 61 57 99 24 38 51 83 61 100 46 81 55 96 60 96 3 0 6 -615 7 -1368
1 -752 2 -1838 4 -2414 l2 -1048 876 0 876 0 -2 665 c0 366 -4 672 -7 680 -3
8 -1 17 4 20 5 3 7 12 4 19 -9 23 -10 236 -1 236 4 0 4 8 -1 18 -5 9 -6 26 -2
37 4 11 3 25 -2 32 -6 7 -5 19 1 32 7 13 8 22 1 26 -7 4 -7 12 0 24 5 10 7 21
4 24 -3 3 -8 756 -10 1674 -10 3904 -12 4565 -19 4571 -6 7 -1487 11 -1515 4
-14 -3 -80 -104 -80 -123 0 -5 -4 -9 -10 -9 -5 0 -10 -4 -10 -9 0 -8 -190
-334 -249 -426 -10 -16 -71 -120 -136 -230 -65 -110 -135 -228 -156 -263 -22
-35 -39 -67 -39 -73 0 -5 -4 -9 -8 -9 -4 0 -13 -12 -20 -27 -6 -16 -31 -59
-55 -98 -24 -38 -54 -90 -67 -115 -14 -25 -28 -47 -31 -50 -3 -3 -22 -34 -42
-70 -21 -36 -42 -72 -47 -80 -6 -8 -13 -23 -16 -32 -4 -10 -10 -18 -14 -18 -5
0 -13 -12 -19 -27 -12 -31 -29 -60 -48 -81 -7 -7 -13 -17 -13 -22 0 -7 -32
-62 -110 -190 -40 -65 -70 -121 -70 -130 0 -5 -4 -10 -8 -10 -5 0 -15 -12 -22
-27 -8 -16 -19 -34 -25 -42 -5 -7 -23 -38 -40 -67 -25 -44 -150 -257 -185
-314 -5 -8 -34 -58 -65 -110 -31 -52 -60 -102 -65 -110 -6 -8 -16 -26 -22 -40
-7 -14 -15 -27 -18 -30 -4 -3 -22 -32 -40 -65 -19 -33 -37 -61 -42 -63 -4 -2
-8 -7 -8 -12 0 -8 -79 -146 -125 -220 -33 -52 -169 -283 -174 -295 -2 -5 -24
-40 -48 -78 -23 -37 -43 -71 -43 -75 0 -4 -6 -14 -12 -20 -7 -7 -13 -16 -13
-20 0 -4 -17 -33 -38 -65 -20 -31 -37 -59 -37 -62 0 -3 -16 -29 -35 -59 -19
-30 -35 -60 -35 -66 0 -5 -4 -10 -9 -10 -5 0 -14 -12 -20 -27 -6 -16 -31 -59
-56 -98 -24 -38 -49 -79 -54 -91 -5 -12 -26 -46 -45 -77 -20 -31 -36 -59 -36
-62 0 -3 -9 -18 -19 -33 -11 -15 -67 -108 -125 -207 -57 -99 -110 -185 -115
-192 -6 -7 -11 -16 -11 -20 0 -5 -11 -24 -24 -43 -13 -19 -46 -75 -74 -124
l-51 -88 -43 68 c-24 38 -60 95 -79 128 -19 32 -44 75 -57 95 -12 20 -27 45
-33 56 -12 23 -24 45 -62 102 -15 24 -27 47 -27 53 0 5 -4 10 -9 10 -5 0 -11
8 -14 18 -4 9 -81 139 -172 287 -91 149 -175 289 -187 313 -12 23 -26 42 -30
42 -4 0 -8 5 -8 11 0 5 -35 67 -77 137 -43 70 -84 136 -90 147 -7 11 -16 28
-19 38 -3 9 -10 17 -14 17 -5 0 -10 6 -12 13 -2 7 -56 101 -121 208 -65 106
-122 201 -127 209 -5 8 -41 67 -80 131 -38 64 -70 119 -70 123 0 4 -5 12 -11
19 -12 14 -200 323 -232 382 -12 22 -25 42 -28 45 -3 3 -16 25 -30 50 -13 25
-26 47 -29 50 -3 3 -53 84 -110 180 -58 96 -108 177 -112 178 -5 2 -8 8 -8 13
0 5 -25 49 -55 98 -30 49 -55 94 -55 99 0 6 -3 12 -7 14 -10 4 -223 357 -223
369 0 5 -4 9 -10 9 -5 0 -10 7 -10 15 0 8 -4 15 -10 15 -5 0 -10 4 -10 10 0 5
-21 44 -47 87 -68 111 -71 116 -80 133 -4 8 -13 21 -20 28 -7 7 -13 20 -13 28
0 8 -4 14 -9 14 -5 0 -11 8 -15 18 -6 19 -26 52 -79 135 -20 31 -37 60 -37 62
0 3 -12 24 -27 48 -15 23 -33 51 -39 62 -6 11 -93 155 -193 320 -99 165 -182
304 -184 310 -3 9 -1532 15 -1546 5z"/>
</g>
</svg>
